<svg width="40" height="40" viewBox="0 0 40 40" fill="none" xmlns="http://www.w3.org/2000/svg">
<path d="M28.716 1.51846C28.7146 1.52103 28.7148 1.53369 28.7148 1.5583H27.3085C27.3085 1.969 27.4806 2.24447 27.6601 2.50502C27.8398 2.76564 28.0597 3.01314 28.3018 3.27064C28.786 3.78596 29.3624 4.33744 29.8248 4.88025C30.2871 5.42299 30.6056 5.96103 30.6632 6.3051C30.7209 6.64916 30.7013 6.83916 30.1232 7.22197C29.6299 7.54892 28.832 7.60424 27.7929 7.40033C26.7539 7.19642 25.5312 6.75236 24.3049 6.28822C23.0787 5.82416 21.8503 5.34057 20.72 5.0715C19.5898 4.80252 18.4825 4.70119 17.6036 5.32713C16.2178 6.31416 15.5927 7.91666 16.0626 9.40369C16.1942 9.82041 16.4032 10.2196 16.687 10.5934C17.1266 10.5596 17.5696 10.5426 18.0116 10.5426C18.2332 10.5426 18.4553 10.5471 18.6771 10.5555C17.9714 10.0637 17.5687 9.50361 17.4033 8.9801C17.1185 8.07853 17.4244 7.18111 18.4194 6.47252C18.7309 6.25064 19.4153 6.2065 20.3944 6.43955C21.3733 6.6726 22.5719 7.13588 23.8069 7.6033C25.0421 8.0708 26.3147 8.54314 27.522 8.7801C28.7292 9.01705 29.9286 9.03791 30.8999 8.39447C31.7864 7.80713 32.1866 6.88705 32.05 6.0726C31.9135 5.25822 31.4241 4.58924 30.8953 3.9683C30.3664 3.34736 29.7688 2.7783 29.3266 2.30767C29.1053 2.07228 28.9238 1.86041 28.818 1.70689C28.7385 1.59166 28.7201 1.51033 28.7158 1.5183L28.716 1.51846ZM17.3086 11.9677C14.5997 12.107 12.0672 13.0392 11.1199 14.4177C10.5105 15.6469 10.0566 17.0133 9.75878 18.4978C12.4638 19.5581 14.8986 20.1351 17.3085 20.2292V19.1364H16.0585V12.7302H17.3085V11.9677H17.3086ZM18.7149 11.9677V12.7302H19.9649V19.1364H18.7149V20.2291C21.1194 20.1353 23.5488 19.5606 26.2467 18.5049C25.9506 17.0033 25.502 15.6264 24.9027 14.4168C23.9548 13.0388 21.423 12.107 18.7148 11.9676L18.7149 11.9677ZM17.4649 14.1364V17.7302H18.5586V14.1364H17.4649ZM9.52659 19.916C9.01487 23.9091 9.54596 28.6493 11.1823 33.847L11.1882 33.866L11.1929 33.8852C11.4368 34.8451 12.2511 35.6312 13.4976 36.1977C14.7443 36.7642 16.3794 37.0711 18.0135 37.0758C19.6478 37.0805 21.2817 36.7826 22.5264 36.2192C23.7709 35.6559 24.584 34.8697 24.8295 33.8877L24.8359 33.8616L24.8445 33.836C26.4775 28.9367 27.0033 24.0477 26.4749 19.9245C20.5222 22.1901 15.4815 22.187 9.52651 19.9159L9.52659 19.916Z" fill="#060E3D"/>
</svg>
