<svg width="12" height="13" viewBox="0 0 12 13" fill="none" xmlns="http://www.w3.org/2000/svg">
<g clip-path="url(#clip0_12_9)">
<path d="M6.00349 4.01355C5.00937 4.01355 4.20349 4.95367 4.20349 6.11355C4.20349 7.27324 5.00937 8.21355 6.00349 8.21355C6.99724 8.21355 7.80349 7.27361 7.80349 6.11355C7.80349 4.95367 6.99762 4.01355 6.00349 4.01355ZM6.75349 7.16355C6.75349 7.24642 6.68637 7.31355 6.60349 7.31355H5.40349C5.32062 7.31355 5.25349 7.24642 5.25349 7.16355V6.86355C5.25349 6.78067 5.32062 6.71355 5.40349 6.71355H5.70349V5.67405L5.69468 5.67986C5.6783 5.6908 5.65992 5.69839 5.6406 5.70222C5.62128 5.70604 5.6014 5.70602 5.58208 5.70216C5.56277 5.69829 5.54441 5.69065 5.52805 5.67969C5.51169 5.66872 5.49766 5.65463 5.48674 5.63824L5.32024 5.38867C5.30931 5.37229 5.30171 5.35392 5.29789 5.33459C5.29406 5.31527 5.29409 5.29539 5.29795 5.27608C5.30182 5.25676 5.30945 5.2384 5.32042 5.22204C5.33139 5.20569 5.34547 5.19165 5.36187 5.18074L5.64931 4.98911C5.72321 4.93984 5.81005 4.91354 5.89887 4.91355H6.15349C6.23637 4.91355 6.30349 4.98067 6.30349 5.06355V6.71355H6.60349C6.68637 6.71355 6.75349 6.78067 6.75349 6.86355V7.16355ZM11.4035 2.51355H0.603494C0.272182 2.51355 0.00349426 2.78224 0.00349426 3.11355V9.11355C0.00349426 9.44486 0.272182 9.71355 0.603494 9.71355H11.4035C11.7348 9.71355 12.0035 9.44486 12.0035 9.11355V3.11355C12.0035 2.78224 11.7348 2.51355 11.4035 2.51355ZM11.1035 7.61355C10.4407 7.61355 9.90349 8.15074 9.90349 8.81355H2.10349C2.10349 8.15074 1.56631 7.61355 0.903494 7.61355V4.61355C1.56631 4.61355 2.10349 4.07636 2.10349 3.41355H9.90349C9.90349 4.07636 10.4407 4.61355 11.1035 4.61355V7.61355Z" fill="white"/>
</g>
<defs>
<clipPath id="clip0_12_9">
<rect width="12" height="12" fill="white" transform="translate(0.00349426 0.113525)"/>
</clipPath>
</defs>
</svg>
