<svg width="10" height="12" viewBox="0 0 10 12" fill="none" xmlns="http://www.w3.org/2000/svg">
<path d="M8.89931 0.905151H1.60765C1.33138 0.905151 1.06643 1.0149 0.871076 1.21025C0.675726 1.4056 0.565979 1.67055 0.565979 1.94682V9.23848C0.565979 9.51475 0.675726 9.7797 0.871076 9.97505C1.06643 10.1704 1.33138 10.2802 1.60765 10.2802H3.69098L5.25348 11.8427L6.81598 10.2802H8.89931C9.47223 10.2802 9.94098 9.8114 9.94098 9.23848V1.94682C9.94098 1.3739 9.47223 0.905151 8.89931 0.905151ZM8.89931 9.23848H6.38369L6.0764 9.54578L5.25348 10.3687L4.42535 9.54057L4.12327 9.23848H1.60765V1.94682H8.89931V9.23848ZM5.25348 5.59265C6.11285 5.59265 6.81598 4.88953 6.81598 4.03015C6.81598 3.17078 6.11285 2.46765 5.25348 2.46765C4.3941 2.46765 3.69098 3.17078 3.69098 4.03015C3.69098 4.88953 4.3941 5.59265 5.25348 5.59265ZM5.25348 3.50932C5.53994 3.50932 5.77431 3.74369 5.77431 4.03015C5.77431 4.31661 5.53994 4.55098 5.25348 4.55098C4.96702 4.55098 4.73265 4.31661 4.73265 4.03015C4.73265 3.74369 4.96702 3.50932 5.25348 3.50932ZM8.37848 7.97807C8.37848 6.67598 6.31077 6.11348 5.25348 6.11348C4.19619 6.11348 2.12848 6.67598 2.12848 7.97807V8.71765H8.37848V7.97807ZM3.42015 7.67598C3.80556 7.41036 4.5816 7.15515 5.25348 7.15515C5.92535 7.15515 6.7014 7.41036 7.08681 7.67598H3.42015Z" fill="white"/>
</svg>
